<?xml version="1.0" encoding="UTF-8" standalone="no"?>
<svg width="111px" height="30px" viewBox="0 0 111 30" version="1.1" xmlns="http://www.w3.org/2000/svg" xmlns:xlink="http://www.w3.org/1999/xlink">
    <!-- Generator: Sketch 3.8.3 (29802) - http://www.bohemiancoding.com/sketch -->
    <title>Group 2</title>
    <desc>Created with Sketch.</desc>
    <defs>
        <path d="M26,31 L1,31 L26,31 Z" id="path-1"></path>
        <mask id="mask-2" maskContentUnits="userSpaceOnUse" maskUnits="objectBoundingBox" x="0" y="0" width="25" height="2" fill="white">
            <use xlink:href="#path-1"></use>
        </mask>
    </defs>
    <g id="Page-1" stroke="none" stroke-width="1" fill="none" fill-rule="evenodd">
        <g id="Group-2" transform="translate(0.000000, -7.000000)">
            <g id="Group-29">
                <g id="Group-30" transform="translate(0.000000, 7.000000)" fill="#FFFFFF">
                    <g id="Group-31">
                        <path d="M1.003125,6.20237053 L8.99254011,3.78406102 L17.2157227,6.20237053 L17.8865849,4.04106541 C18.0495397,3.51607686 17.762926,2.9617978 17.2328559,2.79888097 L8.99253996,0.266223538 L1.20100442,2.78286726 C0.675008694,2.95276238 0.353517696,3.52318329 0.483203805,4.05805007 L1.003125,6.20237053 Z" id="Oval-17"></path>
                        <g id="Group-32" transform="translate(1.132452, 4.701035)">
                            <path d="M8.45964524,21.7624354 C11.0592875,19.9298988 14.1354372,8.2155331 15.1651056,4.02942376 L8.45964524,7.49528917 L8.45964524,21.7624354 Z M7.1297415,21.7555342 C4.51140354,19.8881104 1.39775479,8.05120666 0.383523314,3.94535629 L7.1297415,7.45101638 L7.1297415,21.7555342 Z M15.4606651,2.52686965 L7.79976566,0.211099509 L0.067625762,2.53857845 L7.84069232,6.4321204 L15.4606651,2.52686965 Z" id="Combined-Shape"></path>
                            <polygon id="Path-118" points="0.00783599902 2.51770711 7.86685146 0.19416125 15.5274639 2.5177072 7.86685118 6.43033206"></polygon>
                        </g>
                    </g>
                </g>
                <g id="Group-20" transform="translate(24.000000, 0.000000)">
                    <g id="Group">
                        <use id="Rectangle-2" stroke="#BBC3E0" mask="url(#mask-2)" stroke-width="6" stroke-dasharray="5,7,7,7" xlink:href="#path-1"></use>
                        <g id="Group-65" fill="#FFFFFF">
                            <g id="Group-62" transform="translate(2.000000, 10.000000)">
                                <polygon id="Path-125" points="0.348999023 9.02819824 0.374145508 3.76538086 2.66296387 0.449645996 9.04663086 0.397949219 11.9923706 0.397949219 12.3851929 0.402099609 11.7410889 3.75256348 10.8626099 3.75323486 9.75238037 3.74304199 8.04406738 3.74365234 6.01409912 3.7701416 4.00872803 3.76538086 3.99786377 8.34655762 11.0375366 8.36755371 11.2369995 8.45721436 11.3991089 8.68182373 11.4689941 8.95721436 11.4696045 9.37994385 11.4696045 10.4407349 11.4633179 11.2749023 11.381958 11.4606934 11.2727661 11.6077881 11.1148071 11.7150269 10.845459 11.7475586 4.03778076 11.751709 4.00720215 16.6290894 12.1230469 16.640564 12.5158691 19.961731 12.1542969 19.9936523 2.66296387 19.9936523 0.374145508 17.0279541 0.374145508 13.9538574"></polygon>
                                <path d="M17.0742188,2.42053223 L17.0877686,0.950073242 L17.2564697,0.54284668 L17.677124,0.399291992 L18.8233643,0.389648438 L20.036499,0.389648438 L20.3607178,0.582397461 L20.5698242,0.966552734 L20.5698242,1.70349121 L20.5100098,5.6505127 L20.5100098,19.0632324 C20.5100098,19.1718364 17.0230713,19.9825439 17.0230713,19.9825439 L17.0230713,19.1588135 L17.086792,9.63232422 L17.0742188,2.42053223 Z" id="Path-126"></path>
                                <path d="M25.0511475,2.53088379 L25.0646973,1.0604248 L25.2333984,0.653198242 L25.6540527,0.509643555 L26.800293,0.5 L28.0134277,0.5 L28.3376465,0.692749023 L28.5467529,1.0769043 L28.5467529,1.81384277 L28.4869385,5.76086426 L28.4869385,19.173584 C28.4869385,19.282188 25,20.0928955 25,20.0928955 L25,19.269165 L25.0637207,9.74267578 L25.0511475,2.53088379 Z" id="Path-126"></path>
                                <polygon id="Path-129" points="43.9222412 8.47387695 42.7530518 7.67358398 41.6002197 7.14318848 40.6831055 6.9005127 39.7404785 6.78112793 38.4626465 6.89660645 37.4249268 7.14099121 36.4291992 7.54370117 35.4106445 8.16479492 34.4838867 8.94348145 33.8476562 9.71520996 33.3702393 10.5155029 33.0013428 11.5003662 32.7695312 12.4985352 32.7369385 13.722168 32.8590088 15.0415039 33.2075195 16.1851807 33.7652588 17.1834717 34.4188232 18.0367432 35.3060303 18.9022217 36.4439697 19.5793457 37.2443848 19.9022217 38.2318115 20.1907959 39.1514893 20.3115234 40.2773438 20.2802734 41.3897705 20.0849609 42.3967285 19.6400146 43.479126 18.9022217 44.1708374 18.1711426 44.911499 17.0880737 44.8244434 17.0486184 42.2042236 15.861084 41.9824219 16.1154175 41.7497559 16.3527832 41.3991089 16.6182251 41.0911255 16.7892456 40.7289429 16.9261475 40.2359009 17.0671997 39.9071045 17.130127 39.5095215 17.130127 39.0605469 17.0880737 38.5633545 16.9741211 38.0492554 16.7217407 37.5507812 16.4463501 37.1228638 16.0170898 36.7558594 15.5159912 36.4759521 14.885376 36.3051147 14.1893921 36.2562866 13.5158081 36.300354 12.8817139 36.4299316 12.3255005 36.6443481 11.7821045 37.0432129 11.1547241 37.4928589 10.699646 37.9663696 10.3665161 38.4425049 10.171875 38.8359375 10.0795898 39.2816772 9.99475098 39.7957764 9.94396973 40.3276978 9.99627686 40.7246094 10.1258545 41.1716309 10.296814 41.5019531 10.5064697 41.8743286 10.737793 42.1749268 11.0396729 44.5631104 9.24609375 44.3691406 8.94348145"></polygon>
                                <polygon id="Path-130" points="48.3730469 10.4667969 48.390625 8.4185791 48.3825684 7.08331299 49.059021 7.06488037 49.5338745 7.06488037 50.1469116 7.08331299 50.3830566 7.1484375 50.5078125 7.33703613 50.6672974 7.6328125 50.796875 8.01342773 50.9285327 8.3512176 50.9678955 8.45220947 52.0078125 7.81378174 52.4359741 7.5112915 52.9611206 7.27581787 53.5436401 7.08331299 54.0794678 6.99761963 54.6845093 6.89733887 55.2149048 6.89733887 55.9224854 6.99761963 56.4831543 7.1484375 55.9943848 9.75152588 54.9841919 9.75152588 54.5282593 9.81658936 53.9650269 9.96002197 53.4596558 10.1035156 52.9611206 10.2920532 52.637207 10.4667969 52.3327026 10.6911621 52.0905151 10.9719849 51.8823853 11.3172607 51.8823853 19.7495117 48.398474 20.3211143 48.3845215 18.9758911 48.3825684 14.553772"></polygon>
                                <polygon id="Path-131" points="60.4034424 11.4806519 59.2572021 8.24432373 59.1043701 7.77667236 59.0273438 7.48760986 59.1785889 7.24084473 59.4511719 7.08831787 59.7307129 7.04144287 60.4034424 7.04144287 60.9713745 7.050354 61.6746826 7.07006836 62.265625 7.07006836 62.619812 7.10955811 62.7981567 7.26776123 62.939209 7.57574463 65.2497559 15.1796265 66.126709 12.8621826 67.7584229 8.63299561 68.2252808 7.39837646 68.4144897 7.19226074 68.6954956 7.07006836 69.1099854 7.06939697 71.5551147 7.08917236 71.8793335 7.26776123 72.0283813 7.55462646 71.9572144 7.97784424 70.0192871 12.5513916 67.0054321 19.8170166 64.3704224 26.2219849 61.0666504 24.4923706 63.1547241 19.2332764 60.8040771 12.6397095"></polygon>
                                <polygon id="Path-132" points="80.708374 9.949646 81.2891691 10.1836276 83.2178955 7.98675537 82.9425049 7.70874023 82.3565674 7.40234375 81.597229 7.11889648 80.9969482 6.96154785 80.3539429 6.85308838 79.6375732 6.79205322 78.9817505 6.77642822 78.4312134 6.77642822 77.8789062 6.83892822 77.2628174 7.02496338 76.6156616 7.26495361 76.098938 7.55792236 75.6506348 7.91943359 75.1914062 8.39556885 74.8780518 8.88800049 74.6658325 9.43725586 74.5043335 10.0067139 74.5043335 10.7927246 74.5848389 11.4335327 74.7781982 12.0698242 75.114563 12.6972046 75.5546875 13.1820068 76.0314941 13.5700684 76.4588013 13.8549805 77.0114746 14.1670532 77.5622559 14.4146729 78.147583 14.6555786 78.755188 14.9174805 79.3615112 15.2072144 79.8858643 15.5255737 80.3457031 15.899231 80.5362549 16.2783813 80.5585938 16.5789185 80.4181519 16.9580688 80.097229 17.2089233 79.5703125 17.3621216 79.0876465 17.3621216 78.6495361 17.3621216 78.2385254 17.2850952 77.7636719 17.2089233 77.338562 17.0730591 77.0114746 16.9580688 76.6156616 16.7195435 74.8780518 19.1429443 75.3388062 19.4439697 75.9763794 19.7404175 76.7875366 20.0198975 77.8170776 20.2355957 78.5557861 20.3103027 79.3934326 20.2838135 80.395813 20.1746216 81.3337402 19.9420166 82.1462402 19.5654907 82.9220581 18.9971313 83.4591675 18.3601685 83.8931885 17.46698 84.0579224 16.4470215 83.9494019 15.4506836 83.6746826 14.6829224 83.1816406 13.9633179 82.508667 13.3740845 81.6167603 12.8207397 80.5820312 12.3187866 79.423645 11.8359375 78.7630005 11.5117188 78.3309326 11.2838135 78.0651245 11.013855 77.9470825 10.7695312 77.9036255 10.4810791 78.0651245 10.0926514 78.4312134 9.86541748 78.9817505 9.70220947 79.423645 9.70220947 79.8858643 9.76818848 80.3569946 9.87060547"></polygon>
                            </g>
                        </g>
                    </g>
                </g>
            </g>
        </g>
    </g>
</svg>